# xmcd CD database file
#
# Track frame offsets:
#	150
#	14065
#	28390
#	50908
#	62916
#	79705
#	103239
#	124609
#	151203
#	173272
#	196327
#	222188
#	232819
#
# Disc length: 3299 seconds
#
# Revision: 0
# Processed by: cddbd v1.5.2PL0 Copyright (c) Steve Scherf et al.
# Submitted via: CDex 1.70beta2
#
DISCID=ae0ce10d
DTITLE=Kevin Quain - Winter in Babylon
DYEAR=2007
DGENRE=Jazz
TTITLE0=Hell and High Water
TTITLE1=You Can Always Come Home
TTITLE2=Royal Hotel Blues
TTITLE3=Crazy Little Girl
TTITLE4=Hey Mary
TTITLE5=This Happy Home
TTITLE6=You Old Devil
TTITLE7=Emperor's New Sweater
TTITLE8=The King in Yellow
TTITLE9=The Devil and St. Mary
TTITLE10=Winter in Babylon
TTITLE11=Balm in Gilead
TTITLE12=Moonbeam Blues
EXTD=YEAR: 2007
EXTT0=
EXTT1=
EXTT2=
EXTT3=
EXTT4=
EXTT5=
EXTT6=
EXTT7=
EXTT8=
EXTT9=
EXTT10=
EXTT11=
EXTT12=
PLAYORDER=
